<svg width="527" height="396" viewBox="0 0 527 396" fill="none" xmlns="http://www.w3.org/2000/svg">
<path d="M467.059 314.867C467.234 315.704 467.35 316.303 467.407 316.663C468.002 320.418 466.401 322.597 462.605 323.198C460.969 323.457 459.62 323.297 458.557 322.716C457.505 322.134 456.865 321.118 456.635 319.667C456.462 318.576 456.485 317.492 456.704 316.413C459.883 315.909 463.335 315.394 467.059 314.867ZM447.004 314.295C449.595 314.011 452.841 313.56 456.74 312.943C460.053 312.418 462.91 311.912 465.311 311.426C465.689 311.345 465.81 310.15 465.677 307.841C466.328 307.558 466.995 307.474 467.677 307.587C467.809 308.684 467.969 309.861 468.157 311.118C468.346 312.375 468.579 313.814 468.858 315.436C469.137 317.069 469.338 318.266 469.458 319.027C469.91 321.877 469.585 324.154 468.484 325.858C467.383 327.561 465.716 328.59 463.483 328.944C461.23 329.301 459.335 328.752 457.796 327.298C456.26 325.854 455.283 323.815 454.865 321.181C454.748 320.44 454.71 319.766 454.751 319.159C451.839 319.62 449.565 320.012 447.929 320.334C447.867 320.344 447.796 320.429 447.716 320.59C447.638 320.76 447.575 320.997 447.528 321.3C447.483 321.613 447.466 322.106 447.478 322.779C447.501 323.461 447.511 323.855 447.507 323.961C446.958 324.227 446.321 324.296 445.594 324.169C445.075 320.36 444.751 318.048 444.622 317.236C444.527 316.639 444.176 314.686 443.567 311.375C444.236 311.006 444.899 310.901 445.557 311.06C446.138 313.257 446.62 314.335 447.004 314.295ZM462.504 322.565C465.694 322.06 467.135 320.308 466.829 317.308C464.548 317.627 461.428 318.101 457.467 318.728C457.352 319.137 457.309 319.565 457.338 320.014C457.611 321.068 458.202 321.807 459.114 322.232C460.026 322.668 461.157 322.779 462.504 322.565ZM447.073 314.933C446.308 315.033 445.625 313.918 445.024 311.587C444.846 311.531 444.605 311.57 444.299 311.702C444.638 313.442 444.956 315.253 445.255 317.135C445.602 319.327 445.904 321.436 446.162 323.462C446.34 323.518 446.581 323.48 446.887 323.347C446.552 319.899 446.774 318.102 447.552 317.958C450.454 317.435 453.16 316.974 455.67 316.577C455.298 317.954 455.241 319.455 455.498 321.081C455.829 323.169 456.696 324.683 458.1 325.62C459.505 326.568 461.175 326.889 463.109 326.583C465.136 326.262 466.66 325.361 467.68 323.881C468.711 322.399 469.034 320.444 468.649 318.016C468.53 317.265 468.348 316.213 468.102 314.86C467.856 313.507 467.647 312.29 467.476 311.21C467.306 310.14 467.175 309.111 467.082 308.124C466.884 308.071 466.642 308.109 466.357 308.239C466.389 308.709 466.408 309.096 466.414 309.401C466.42 309.706 466.406 310.082 466.372 310.531C466.337 310.979 466.239 311.327 466.078 311.574C465.929 311.829 465.717 311.99 465.442 312.054C463.041 312.54 460.174 313.047 456.84 313.575C453.579 314.092 450.323 314.545 447.073 314.933Z" fill="white" fill-opacity="0.2"/>
<path d="M460.896 380.565C460.832 381.636 460.267 382.453 459.2 383.015C458.144 383.589 456.539 383.812 454.387 383.683C452.234 383.555 450.667 383.143 449.686 382.448C448.704 381.764 448.245 380.886 448.309 379.815C448.344 379.222 448.501 378.689 448.78 378.215C449.058 377.752 449.467 377.364 450.008 377.052C450.547 376.75 451.213 376.529 452.004 376.388C452.805 376.248 453.747 376.21 454.828 376.275C455.899 376.338 456.824 376.487 457.603 376.722C458.393 376.957 459.032 377.256 459.522 377.619C460.021 377.993 460.382 378.427 460.603 378.92C460.834 379.424 460.931 379.972 460.896 380.565ZM447.28 379.754C447.222 380.721 447.352 381.6 447.67 382.391C447.988 383.182 448.454 383.867 449.066 384.446C449.688 385.036 450.438 385.504 451.315 385.848C452.192 386.193 453.16 386.396 454.221 386.46C455.282 386.523 456.268 386.436 457.179 386.198C458.091 385.96 458.886 385.585 459.563 385.072C460.25 384.57 460.799 383.945 461.209 383.198C461.619 382.45 461.852 381.593 461.91 380.625C461.971 379.596 461.845 378.655 461.53 377.801C461.216 376.947 460.754 376.21 460.144 375.59C459.533 374.979 458.785 374.491 457.899 374.125C457.023 373.76 456.055 373.546 454.994 373.483C453.923 373.419 452.931 373.516 452.019 373.775C451.106 374.034 450.305 374.429 449.616 374.962C448.936 375.506 448.39 376.183 447.976 376.993C447.573 377.804 447.341 378.724 447.28 379.754ZM462.517 381.21C462.442 382.468 462.183 383.574 461.74 384.529C461.296 385.493 460.701 386.293 459.953 386.927C459.216 387.561 458.349 388.026 457.35 388.321C456.352 388.616 455.265 388.729 454.09 388.659C452.925 388.59 451.865 388.349 450.909 387.937C449.952 387.525 449.141 386.96 448.474 386.242C447.817 385.535 447.325 384.677 446.999 383.666C446.663 382.654 446.533 381.52 446.608 380.261C446.682 379.014 446.946 377.908 447.4 376.943C447.843 375.989 448.433 375.194 449.17 374.56C449.917 373.937 450.784 373.477 451.772 373.181C452.771 372.886 453.858 372.773 455.033 372.843C456.208 372.913 457.273 373.154 458.23 373.566C459.186 373.978 459.992 374.542 460.649 375.26C461.316 375.978 461.812 376.837 462.139 377.837C462.465 378.838 462.591 379.962 462.517 381.21ZM454.697 378.474C451.338 378.274 449.432 378.917 448.978 380.403C449.251 381.963 451.066 382.844 454.425 383.044C457.752 383.242 459.664 382.584 460.162 381.069C459.846 379.537 458.024 378.672 454.697 378.474Z" fill="white" fill-opacity="0.2"/>
<path d="M14.8395 97.161C15.5524 96.6887 16.0656 96.3595 16.379 96.1732C19.6473 94.2305 22.2634 94.9112 24.2274 98.2153C25.0737 99.639 25.4238 100.952 25.2777 102.153C25.1263 103.346 24.4193 104.318 23.1568 105.068C22.2076 105.632 21.1914 106.012 20.108 106.208C18.4633 103.441 16.7072 100.425 14.8395 97.161ZM21.7317 116.004C20.5085 113.701 18.8883 110.853 16.8711 107.459C15.1573 104.576 13.6302 102.109 12.2899 100.058C12.075 99.7373 10.9196 100.067 8.82363 101.046C8.32013 100.545 7.99474 99.9572 7.84746 99.2813C8.8179 98.7529 9.85199 98.1686 10.9497 97.5282C12.0475 96.8878 13.2984 96.1382 14.7025 95.2793C16.1156 94.4151 17.1534 93.7861 17.8161 93.3922C20.2964 91.9179 22.5317 91.3769 24.522 91.7692C26.5123 92.1615 28.0849 93.3292 29.2399 95.2722C30.4055 97.2332 30.5975 99.1973 29.8158 101.165C29.0431 103.126 27.5106 104.789 25.2184 106.151C24.5737 106.534 23.9615 106.82 23.3819 107.007C24.8882 109.541 26.094 111.508 26.9993 112.909C27.0312 112.962 27.1365 112.997 27.3151 113.012C27.5026 113.022 27.7457 112.992 28.0443 112.924C28.3519 112.85 28.8162 112.683 29.4371 112.423C30.0617 112.149 30.4241 111.994 30.5243 111.959C30.9746 112.37 31.2751 112.936 31.4257 113.659C28.079 115.551 26.052 116.707 25.3446 117.128C24.8253 117.436 23.1408 118.486 20.2911 120.277C19.7 119.792 19.3567 119.215 19.2612 118.544C21.0872 117.192 21.9107 116.345 21.7317 116.004ZM23.6767 98.5426C22.0268 95.7668 19.8653 95.0764 17.1924 96.4713C18.3328 98.4715 19.9276 101.195 21.9768 104.643C22.3986 104.598 22.8126 104.479 23.219 104.286C24.097 103.643 24.5648 102.82 24.6226 101.816C24.6893 100.807 24.374 99.7156 23.6767 98.5426ZM22.2983 115.703C22.6743 116.376 21.8911 117.424 19.9487 118.845C19.9622 119.031 20.0873 119.241 20.3239 119.476C21.8142 118.517 23.3787 117.551 25.0173 116.577C26.9245 115.443 28.7716 114.382 30.5586 113.392C30.5451 113.207 30.42 112.996 30.1834 112.761C27.1041 114.349 25.3533 114.808 24.9309 114.138C23.3709 111.636 21.9415 109.293 20.6429 107.108C22.0602 106.944 23.4763 106.442 24.891 105.601C26.7087 104.52 27.7934 103.154 28.145 101.503C28.5055 99.847 28.1855 98.1771 27.1849 96.4937C26.1363 94.7298 24.7357 93.6476 22.9831 93.2474C21.2251 92.8382 19.2895 93.2616 17.1763 94.5177C16.5227 94.9063 15.6128 95.4653 14.4469 96.1947C13.2809 96.9241 12.2278 97.5683 11.2876 98.1271C10.3563 98.6807 9.44942 99.1834 8.56684 99.6353C8.59101 99.8391 8.71608 100.049 8.94207 100.267C9.3663 100.063 9.7189 99.9018 9.99986 99.7832C10.2808 99.6647 10.636 99.5384 11.0653 99.4044C11.4946 99.2704 11.8538 99.2326 12.143 99.291C12.4358 99.335 12.663 99.4726 12.8246 99.7038C14.1649 101.755 15.6973 104.231 17.4218 107.132C19.109 109.971 20.7345 112.828 22.2983 115.703Z" fill="white" fill-opacity="0.2"/>
<path d="M78.108 78.6127C79.1265 78.2755 80.0945 78.4983 81.0119 79.2809C81.9359 80.0504 82.7367 81.4586 83.4142 83.5057C84.0917 85.5527 84.2893 87.1606 84.0068 88.3294C83.7342 89.4949 83.0887 90.2463 82.0701 90.5834C81.5064 90.77 80.9529 90.8215 80.4096 90.738C79.8761 90.6512 79.3644 90.4146 78.8744 90.0282C78.3943 89.6385 77.9425 89.1022 77.519 88.4195C77.0922 87.7268 76.7086 86.8663 76.3682 85.8378C76.0311 84.8192 75.8272 83.9047 75.7564 83.0942C75.6824 82.2738 75.7234 81.569 75.8795 80.9797C76.0422 80.3772 76.3117 79.882 76.688 79.4941C77.071 79.0931 77.5443 78.7993 78.108 78.6127ZM82.3941 91.5624C83.3138 91.258 84.0823 90.8116 84.6995 90.2233C85.3167 89.635 85.781 88.9492 86.0923 88.1658C86.4102 87.3693 86.5669 86.5 86.5623 85.5579C86.5577 84.6158 86.3884 83.6404 86.0546 82.6318C85.7207 81.6231 85.2746 80.7393 84.7162 79.9805C84.1578 79.2217 83.5151 78.6225 82.7881 78.1828C82.0676 77.73 81.2842 77.4517 80.4379 77.3478C79.5915 77.2438 78.7085 77.3441 77.7888 77.6485C76.8098 77.9725 75.982 78.4385 75.3055 79.0465C74.6289 79.6545 74.1152 80.3567 73.7643 81.1531C73.4234 81.9462 73.2469 82.8221 73.235 83.7806C73.2198 84.7293 73.3792 85.7079 73.713 86.7166C74.0502 87.7352 74.5078 88.6206 75.086 89.3729C75.6641 90.1251 76.3283 90.7228 77.0784 91.1658C77.8351 91.5956 78.6663 91.8526 79.572 91.9369C80.4744 92.0113 81.4151 91.8864 82.3941 91.5624ZM78.1067 76.8685C79.3033 76.4724 80.4269 76.3035 81.4776 76.3617C82.5382 76.4167 83.5011 76.674 84.3665 77.1337C85.2286 77.5835 85.9816 78.2176 86.6255 79.0359C87.2694 79.8541 87.7763 80.822 88.1461 81.9395C88.5127 83.0471 88.6817 84.1213 88.6532 85.1621C88.6246 86.203 88.4002 87.166 87.98 88.0512C87.5664 88.9233 86.9504 89.6977 86.1321 90.3746C85.317 91.0613 84.3112 91.6027 83.1146 91.9987C81.9279 92.3915 80.8026 92.5555 79.7388 92.4907C78.6881 92.4324 77.7317 92.1784 76.8697 91.7286C76.0142 91.2656 75.2661 90.6299 74.6255 89.8215C73.9816 89.0033 73.4747 88.0354 73.1049 86.9179C72.735 85.8005 72.5643 84.7213 72.5929 83.6804C72.6214 82.6396 72.8475 81.6815 73.271 80.8062C73.6912 79.921 74.3055 79.1416 75.114 78.468C75.9224 77.7944 76.92 77.2613 78.1067 76.8685ZM78.4598 85.1455C79.517 88.3397 80.8198 89.8725 82.3683 89.744C83.7173 88.9135 83.8632 86.9011 82.806 83.707C81.7586 80.5425 80.4393 79.0096 78.8481 79.1084C77.5418 79.9686 77.4124 81.981 78.4598 85.1455Z" fill="white" fill-opacity="0.2"/>
<path d="M140.793 70.4257C140.953 69.4457 141.391 68.4632 142.106 67.4782C142.821 66.4932 143.598 65.9574 144.437 65.8706C145.422 65.7689 145.947 66.0341 146.012 66.6661C146.071 67.236 145.839 67.6265 145.316 67.8376C145.193 68.0598 145.218 68.3033 145.392 68.5681C145.951 68.5103 146.389 68.2922 146.706 67.9139C147.034 67.5345 147.166 67.0391 147.103 66.4278C147.036 65.7853 146.787 65.3032 146.356 64.9812C145.934 64.6478 145.412 64.5132 144.791 64.5775C143.983 64.661 143.203 65.0714 142.452 65.8088C141.71 66.5347 141.08 67.3277 140.561 68.1876L140.285 65.5143C140.185 65.3571 139.995 65.2406 139.715 65.1648C138.394 65.9611 136.832 66.5519 135.028 66.9372C134.992 67.1923 135.017 67.4358 135.104 67.6677C136.509 67.5853 137.531 67.6944 138.169 67.9949C138.652 71.8512 138.962 74.9504 139.099 77.2924C139.157 78.0613 138.328 78.6497 136.611 79.0575C136.484 79.3533 136.51 79.5968 136.686 79.788C139.388 79.3831 142.346 79.0774 145.561 78.8709C145.685 78.6487 145.659 78.4052 145.485 78.1404C143.006 78.1662 141.717 77.7968 141.617 77.0322C141.306 74.9385 141.031 72.7363 140.793 70.4257ZM143.805 76.7747C143.867 77.1766 144.599 77.4204 146.001 77.5059C146.414 78.1544 146.461 78.8145 146.143 79.4862C141.735 79.7951 138.411 80.1072 136.171 80.4225C135.724 79.8508 135.639 79.226 135.914 78.5483C137.631 78.1405 138.479 77.7334 138.458 77.3272C138.278 74.3613 137.982 71.3968 137.571 68.4338C136.866 68.2972 135.909 68.26 134.7 68.322C134.398 67.725 134.33 67.067 134.496 66.3482C136.216 66.0657 138.002 65.4099 139.854 64.3808C140.986 64.3895 141.86 64.6395 142.476 65.1308C143.281 64.4088 144.031 64.012 144.725 63.9402C145.533 63.8567 146.216 64.027 146.773 64.4512C147.33 64.8754 147.652 65.5123 147.74 66.3619C147.823 67.1701 147.65 67.8268 147.221 68.3319C146.791 68.8371 146.204 69.1282 145.458 69.2053C144.763 69.2771 144.159 69.1039 143.645 68.6858C143.279 69.2996 143.068 69.845 143.012 70.3219C143.245 72.5704 143.509 74.7213 143.805 76.7747Z" fill="white" fill-opacity="0.2"/>
<path d="M203.329 67.957L209.43 68.6536C209.621 68.2665 209.664 67.8939 209.558 67.5358L203.457 66.8392L203.845 63.4394C203.599 63.2961 203.34 63.2665 203.069 63.3508C202.604 64.0212 202.108 64.5989 201.581 65.0839C201.055 65.5585 200.619 65.8862 200.274 66.0669C199.94 66.2384 199.459 66.4561 198.831 66.72C198.734 66.929 198.707 67.1671 198.749 67.4341L200.643 67.6503L199.715 75.785C199.368 78.8173 200.448 80.4765 202.952 80.7625C204.018 80.8842 205.033 80.7222 205.996 80.2765C206.96 79.8204 207.711 79.2142 208.248 78.4577C208.181 78.2194 208.024 78.0757 207.778 78.0267C206.706 78.7849 205.714 79.1121 204.804 79.0081C203.003 78.8025 202.196 77.8821 202.383 76.2469L203.329 67.957ZM207.668 77.3379C208.31 77.4951 208.735 77.9053 208.943 78.5685C208.292 79.4903 207.417 80.2239 206.317 80.7692C205.215 81.325 204.07 81.5349 202.879 81.399C199.961 81.0657 198.699 79.1708 199.094 75.7141L199.952 68.2004L198.042 67.9824C197.949 67.4161 198.014 66.8469 198.237 66.2747C198.91 65.9846 199.425 65.7445 199.782 65.5547C200.14 65.3544 200.598 65.0188 201.155 64.5477C201.712 64.0766 202.224 63.4903 202.693 62.7889C203.711 62.4963 204.842 62.6464 206.085 63.2392L205.718 66.4527L210.236 66.9685C210.48 67.7721 210.389 68.5639 209.965 69.3437L205.447 68.8279L204.571 76.4968C204.458 77.4903 204.748 78.1158 205.442 78.3733C206.079 78.3097 206.821 77.9645 207.668 77.3379Z" fill="white" fill-opacity="0.2"/>
<path d="M264.585 93.0855C264.473 93.4766 265.035 94.0052 266.271 94.6713C266.373 95.4332 266.139 96.0521 265.568 96.5281C261.438 94.9575 258.29 93.845 256.125 93.1906C255.959 92.4843 256.144 91.8814 256.679 91.382C258.409 91.7329 259.349 91.7195 259.501 91.342C259.875 90.38 260.923 87.3864 262.646 82.3612L260.828 81.7378C260.77 80.8478 261.029 80.0941 261.604 79.4764L263.422 80.0998L263.746 79.1539C264.588 76.7004 265.936 74.8392 267.792 73.5705C269.651 72.2919 271.758 72.0563 274.113 72.8639C275.305 73.2727 276.202 73.9327 276.803 74.8437C277.408 75.745 277.534 76.7129 277.179 77.7475C276.952 78.4077 276.528 78.9064 275.906 79.2436C275.287 79.571 274.613 79.6097 273.884 79.3596C273.283 79.1535 272.867 78.8403 272.637 78.42C272.407 77.9996 272.371 77.5579 272.53 77.0948C272.814 76.2671 273.292 75.8364 273.964 75.8026C273.768 75.5704 273.439 75.3748 272.976 75.216C272.318 75.1115 271.697 75.2511 271.114 75.6348C270.531 76.0185 270.104 76.6045 269.834 77.3928L268.329 81.7825L271.344 82.8164C271.399 83.7162 271.14 84.47 270.569 85.0778L267.553 84.0439C265.975 88.6454 264.986 91.6593 264.585 93.0855ZM273.275 74.344C274.26 74.6819 274.909 75.1025 275.221 75.6059C275.533 76.1093 275.606 76.6024 275.44 77.0852C275.2 77.7848 274.8 78.1322 274.24 78.1274C274.035 78.2772 273.955 78.5087 274.002 78.8221C274.524 79.0011 275.04 78.9578 275.55 78.6921C276.059 78.4263 276.4 78.0422 276.573 77.5397C276.863 76.6923 276.747 75.8924 276.223 75.1402C275.712 74.3814 274.939 73.8246 273.905 73.4699C271.747 72.7299 269.81 72.9521 268.093 74.1364C266.386 75.3241 265.139 77.0658 264.352 79.3617L263.82 80.9136L261.825 80.2294C261.565 80.5039 261.444 80.8586 261.46 81.2935L263.455 81.9778C261.59 87.4169 260.47 90.6174 260.097 91.5794C259.827 92.3018 258.827 92.4875 257.097 92.1366C256.858 92.352 256.779 92.5836 256.859 92.8313C259.481 93.5983 262.294 94.563 265.299 95.7253C265.504 95.5756 265.584 95.344 265.537 95.0307C263.276 94.0131 262.256 93.1347 262.476 92.3954C262.924 90.8312 263.985 87.6104 265.657 82.7329L270.195 84.2889C270.454 84.0144 270.576 83.6597 270.56 83.2248L266.022 81.6688L267.497 77.3678C267.906 76.1755 268.678 75.2729 269.813 74.6601C270.948 74.0473 272.102 73.9419 273.275 74.344Z" fill="white" fill-opacity="0.2"/>
<path d="M323.473 109.752C324.389 110.31 324.846 111.192 324.844 112.398C324.855 113.6 324.3 115.122 323.179 116.964C322.057 118.805 320.96 119.997 319.886 120.538C318.821 121.085 317.831 121.079 316.914 120.521C316.407 120.212 316.01 119.824 315.721 119.356C315.442 118.893 315.291 118.35 315.269 117.726C315.255 117.108 315.371 116.416 315.617 115.652C315.869 114.878 316.276 114.028 316.84 113.103C317.398 112.187 317.963 111.439 318.535 110.861C319.112 110.273 319.676 109.848 320.226 109.586C320.791 109.32 321.343 109.204 321.882 109.24C322.435 109.272 322.966 109.443 323.473 109.752ZM316.378 121.402C317.205 121.906 318.043 122.203 318.891 122.292C319.739 122.382 320.562 122.292 321.361 122.022C322.174 121.748 322.938 121.305 323.653 120.692C324.368 120.078 325.002 119.318 325.554 118.41C326.107 117.503 326.492 116.591 326.708 115.674C326.925 114.757 326.966 113.879 326.83 113.04C326.709 112.198 326.414 111.421 325.945 110.709C325.477 109.996 324.829 109.388 324.001 108.884C323.12 108.348 322.229 108.019 321.328 107.897C320.427 107.775 319.559 107.838 318.725 108.086C317.899 108.339 317.118 108.772 316.379 109.383C315.647 109.986 315.004 110.741 314.451 111.648C313.893 112.565 313.515 113.487 313.315 114.414C313.116 115.342 313.091 116.235 313.239 117.094C313.401 117.949 313.743 118.749 314.265 119.493C314.793 120.229 315.497 120.866 316.378 121.402ZM324.801 108.622C325.878 109.277 326.734 110.024 327.37 110.863C328.015 111.707 328.442 112.607 328.652 113.564C328.867 114.513 328.871 115.497 328.664 116.517C328.458 117.538 328.048 118.551 327.436 119.556C326.829 120.553 326.12 121.377 325.308 122.029C324.496 122.681 323.617 123.133 322.67 123.386C321.738 123.636 320.749 123.667 319.703 123.482C318.652 123.305 317.588 122.889 316.512 122.234C315.444 121.583 314.591 120.832 313.951 119.979C313.316 119.141 312.89 118.247 312.675 117.299C312.474 116.347 312.474 115.366 312.675 114.354C312.882 113.333 313.292 112.321 313.904 111.315C314.516 110.31 315.228 109.481 316.04 108.829C316.852 108.177 317.728 107.729 318.67 107.485C319.616 107.232 320.608 107.196 321.645 107.376C322.682 107.556 323.734 107.971 324.801 108.622ZM318.722 114.249C316.972 117.123 316.647 119.108 317.747 120.205C319.253 120.696 320.882 119.504 322.632 116.63C324.365 113.783 324.68 111.786 323.574 110.637C322.073 110.198 320.455 111.402 318.722 114.249Z" fill="white" fill-opacity="0.2"/>
<path d="M368.08 161.291C366.448 159.411 365.891 158.186 366.409 157.614C370.325 153.374 375.161 148.263 380.918 142.281C380.973 142.103 380.938 141.875 380.814 141.598C379.293 141.093 377.911 140.36 376.667 139.4C376.441 139.545 376.272 139.722 376.159 139.931C376.959 140.797 377.458 141.571 377.657 142.252C372.3 147.968 367.941 152.505 364.581 155.864C364.033 156.406 363.047 156.155 361.625 155.11C361.37 155.226 361.193 155.411 361.095 155.663C362.899 157.274 365.05 159.335 367.551 161.844C367.799 161.736 367.976 161.551 368.08 161.291ZM368.887 161.263C368.568 161.852 368.132 162.307 367.579 162.628C364.74 159.795 362.313 157.471 360.3 155.658C360.604 155.099 361.04 154.644 361.607 154.293C362.956 155.354 363.801 155.722 364.14 155.398C368.459 151.068 372.72 146.632 376.924 142.091C376.571 141.45 376.037 140.744 375.32 139.971C375.579 139.369 376.037 138.891 376.692 138.538C377.893 139.572 379.497 140.459 381.502 141.196C382.264 142.041 382.636 142.873 382.617 143.691C376.168 150.366 371.303 155.508 368.022 159.115C367.713 159.468 368.001 160.184 368.887 161.263Z" fill="white" fill-opacity="0.2"/>
<path d="M420.972 193.377C422.283 195.332 422.229 196.785 420.81 197.737C419.391 198.688 418.026 198.185 416.715 196.23C416.518 195.936 416.389 195.621 416.327 195.286C416.271 194.96 416.275 194.638 416.338 194.32C416.409 193.996 416.537 193.691 416.721 193.404C416.905 193.118 417.14 192.879 417.426 192.688C417.711 192.496 418.022 192.37 418.357 192.308C418.692 192.247 419.018 192.247 419.336 192.31C419.663 192.367 419.966 192.483 420.247 192.659C420.533 192.843 420.775 193.082 420.972 193.377ZM419.16 192.861C418.683 192.804 418.224 192.924 417.782 193.22C417.558 193.37 417.369 193.547 417.216 193.75C417.078 193.955 416.979 194.172 416.919 194.401C416.867 194.623 416.853 194.846 416.877 195.068C416.915 195.293 416.998 195.501 417.126 195.691C417.247 195.873 417.405 196.024 417.599 196.145C417.802 196.26 418.016 196.336 418.241 196.373C418.475 196.405 418.713 196.395 418.956 196.346C419.207 196.29 419.445 196.187 419.67 196.036C419.895 195.885 420.077 195.707 420.215 195.502C420.362 195.291 420.461 195.074 420.512 194.851C420.572 194.623 420.583 194.396 420.545 194.171C420.516 193.94 420.44 193.733 420.318 193.551C420.197 193.37 420.039 193.218 419.845 193.098C419.651 192.977 419.423 192.898 419.16 192.861ZM406.048 209.248C404.858 207.061 404.577 205.745 405.206 205.298C407.744 203.472 410.909 201.3 414.702 198.783C414.794 198.621 414.805 198.394 414.735 198.103C413.366 197.277 412.174 196.264 411.157 195.065C410.914 195.152 410.711 195.288 410.547 195.474C411.15 196.486 411.471 197.349 411.511 198.063C408.335 200.304 405.764 202.015 403.796 203.195C403.145 203.607 402.236 203.15 401.072 201.824C400.797 201.882 400.585 202.025 400.436 202.25C402.152 204.699 403.811 207.174 405.412 209.675C405.677 209.622 405.889 209.48 406.048 209.248ZM406.85 209.407C406.406 209.905 405.882 210.256 405.279 210.459C403.498 207.615 401.628 204.824 399.668 202.088C400.08 201.598 400.604 201.247 401.239 201.035C402.322 202.353 403.065 202.89 403.466 202.646C405.964 201.135 408.423 199.499 410.843 197.739C410.627 197.044 410.255 196.246 409.727 195.346C410.113 194.799 410.662 194.43 411.376 194.241C412.321 195.501 413.696 196.711 415.501 197.871C416.059 198.852 416.244 199.737 416.058 200.526C411.778 203.345 408.578 205.54 406.458 207.111C406.086 207.398 406.217 208.163 406.85 209.407Z" fill="white" fill-opacity="0.2"/>
<path d="M442.65 255.258C443.042 256.257 442.872 257.236 442.14 258.194C441.422 259.158 440.059 260.034 438.052 260.822C436.044 261.609 434.449 261.893 433.267 261.675C432.088 261.465 431.303 260.862 430.911 259.863C430.695 259.31 430.613 258.76 430.667 258.213C430.725 257.676 430.934 257.152 431.293 256.642C431.656 256.141 432.167 255.661 432.826 255.201C433.494 254.737 434.333 254.308 435.341 253.912C436.34 253.52 437.242 253.267 438.048 253.153C438.863 253.034 439.569 253.037 440.166 253.161C440.776 253.291 441.285 253.533 441.693 253.888C442.114 254.249 442.433 254.706 442.65 255.258ZM429.951 260.239C430.305 261.141 430.793 261.884 431.413 262.469C432.034 263.053 432.744 263.48 433.543 263.748C434.356 264.022 435.232 264.132 436.173 264.076C437.113 264.021 438.078 263.799 439.067 263.411C440.056 263.023 440.915 262.53 441.642 261.931C442.37 261.332 442.933 260.658 443.333 259.908C443.746 259.164 443.981 258.367 444.039 257.516C444.097 256.666 443.949 255.789 443.596 254.887C443.219 253.927 442.709 253.126 442.065 252.483C441.422 251.841 440.693 251.366 439.878 251.059C439.068 250.761 438.184 250.632 437.226 250.672C436.278 250.708 435.309 250.921 434.32 251.309C433.321 251.7 432.462 252.205 431.742 252.823C431.022 253.441 430.461 254.137 430.06 254.91C429.671 255.689 429.46 256.533 429.425 257.442C429.399 258.347 429.575 259.279 429.951 260.239ZM444.392 255.163C444.852 256.336 445.081 257.449 445.08 258.501C445.083 259.563 444.878 260.539 444.466 261.428C444.063 262.313 443.471 263.099 442.689 263.786C441.906 264.473 440.967 265.032 439.872 265.462C438.786 265.888 437.722 266.115 436.681 266.143C435.64 266.17 434.667 265.999 433.76 265.627C432.867 265.261 432.06 264.688 431.34 263.907C430.61 263.131 430.015 262.156 429.555 260.982C429.098 259.819 428.874 258.704 428.881 257.638C428.882 256.586 429.084 255.617 429.486 254.732C429.902 253.853 430.497 253.071 431.269 252.388C432.051 251.701 432.99 251.142 434.086 250.712C435.182 250.282 436.25 250.054 437.291 250.026C438.332 249.998 439.301 250.172 440.198 250.547C441.105 250.919 441.916 251.49 442.633 252.261C443.349 253.032 443.935 253.999 444.392 255.163ZM436.146 255.963C433.014 257.192 431.554 258.576 431.766 260.115C432.668 261.417 434.685 261.454 437.818 260.225C440.921 259.008 442.38 257.608 442.195 256.024C441.266 254.766 439.249 254.746 436.146 255.963Z" fill="white" fill-opacity="0.2"/>
</svg>
